<svg width="350" height="96" viewBox="0 0 350 96" fill="none" xmlns="http://www.w3.org/2000/svg">
<path d="M268.484 0H258.168L258.154 19.6155L238.471 19.6288V29.908L258.154 29.9229L258.168 49.5368H268.484L268.497 29.9229L288.181 29.908V19.6288L268.497 19.6155L268.484 0Z" fill="#0A58F4"/>
<path d="M342.674 43.4706L342.65 43.4392L331.708 28.4116L349.467 22.649L346.28 12.8727L346.275 12.8743L346.237 12.8859L328.513 18.6137L328.502 0.000824089H318.186L318.175 18.6137L300.452 12.8859L300.413 12.8743L300.408 12.8727L297.221 22.649L314.981 28.4116L304.038 43.4392L304.015 43.4706L304.011 43.4756L312.357 49.5178L312.361 49.5128L312.364 49.5078L323.345 34.4653L334.284 49.4516L334.328 49.5128L334.333 49.5178L342.677 43.4756L342.674 43.4706Z" fill="#0A58F4"/>
<path d="M171 95.6813V12H186.581V43.1033L215.116 12H234.257L200.294 49.4057L236.65 95.6813H216.925L186.581 55.7664V95.6813H171Z" fill="black"/>
<path d="M108 95.6813V12H160.986V26.3554H123.581V45.4959H153.692V59.8512H123.581V95.6813H108Z" fill="black"/>
<path d="M62.1267 14.0596C74.1809 14.0596 84.0365 19.1178 89.5708 26.7052C95.1052 34.1393 98.1377 43.1828 98.1377 52.3797V59.4305H42.7187C42.7187 65.6384 44.3866 70.7733 47.7981 74.9885C51.2097 79.2037 55.9859 81.273 62.1267 81.273C70.8451 81.273 78.6538 76.2914 82.5961 67.9376L96.394 73.4557C92.4517 81.1963 87.903 86.8677 82.7477 90.3931C77.5925 93.9186 70.6935 95.6813 62.1267 95.6813C49.6934 95.6813 39.6862 90.3165 34.1519 82.2693C28.6175 74.2221 25.585 64.7187 25.585 54.9088C25.585 45.0988 28.6175 35.5188 34.1519 27.5483C39.6862 19.501 49.6934 14.0596 62.1267 14.0596ZM43.0219 45.7886H81.004C80.3217 40.8836 78.3506 36.8217 75.0906 33.5262C71.9065 30.2307 67.5852 28.5446 62.1267 28.5446C56.9714 28.5446 52.7259 30.154 49.3902 33.3729C46.0544 36.5152 43.9317 40.6537 43.0219 45.7886Z" fill="black"/>
<path d="M0 95.6813V12H15.5808V95.6813H0Z" fill="black"/>
</svg>
